<?xml version="1.0" ?>

<svg width="800px" height="800px" viewBox="0 0 128 128" id="Layer_1"
     xmlns="http://www.w3.org/2000/svg">

<style type="text/css">
	.st0 {
    fill: #581166;
  }

  .st2 {
    fill: #FF5855;
  }

  .st3 {
    opacity: 0.5;
  }

  .st4 {
    fill: #FFDA8E;
  }

  .st5 {
    fill: #FFFFFF;
  }
</style>

  <g>

<g>

<g>

<g>

<path class="st2"
      d="M90.3,28H18.5c-0.5,0-0.9,0-1.4,0.1v84.1c0.5,0,0.9,0.1,1.4,0.1h71.8c11,0,19.9,0,19.9-18.1v-48      C110.3,28,101.3,28,90.3,28z"/>

</g>

</g>

</g>

    <g class="st3">

<g>

<g>

<path class="st0"
      d="M90.3,28H18.5c-0.5,0-0.9,0-1.4,0.1v84.1c0.5,0,0.9,0.1,1.4,0.1h71.8c11,0,19.9,0,19.9-18.1v-48      C110.3,28,101.3,28,90.3,28z"/>

</g>

</g>

</g>

    <g>

<g>

<g>

<path class="st0"
      d="M90.3,114H18.5c-0.4,0-0.9,0-1.3-0.1c-1-0.1-1.9-0.9-1.9-1.9V28c0-1,0.8-1.8,1.8-1.9l0.2,0      c0.4,0,0.8-0.1,1.2-0.1h71.8c10.7,0,21.8,0,21.8,20v48C112.1,114,101.1,114,90.3,114z M19.1,110.3h71.3c10.9,0,18.1,0,18.1-16.2      v-48c0-16.2-7.2-16.2-18.1-16.2H19.1V110.3z"/>

</g>

</g>

</g>

    <g>

<g>

<g>

<path class="st2"
      d="M90.3,21.8H18.5c-0.5,0-0.9,0-1.4,0.1v84.1c0.5,0,0.9,0.1,1.4,0.1h71.8c11,0,19.9,0,19.9-18.1v-48      C110.3,21.8,101.3,21.8,90.3,21.8z"/>

</g>

</g>

</g>

    <g>

<g>

<g>

<path class="st0"
      d="M90.3,107.8H18.5c-0.4,0-0.8,0-1.2-0.1l-0.2,0c-1-0.1-1.8-0.9-1.8-1.9V21.8c0-1,0.8-1.8,1.8-1.9l0.2,0      c0.4,0,0.8-0.1,1.2-0.1h71.8c10.7,0,21.8,0,21.8,20v48C112.1,107.8,101.1,107.8,90.3,107.8z M19.1,104.1h71.3      c10.9,0,18.1,0,18.1-16.2v-48c0-16.2-7.2-16.2-18.1-16.2H19.1V104.1z"/>

</g>

</g>

</g>

    <g>

<g>

<g>

<g>

<path class="st0"
      d="M99,95.3h-6.6c-1,0-1.9-0.8-1.9-1.9c0-1,0.8-1.9,1.9-1.9h4.7v-4.7c0-1,0.8-1.9,1.9-1.9s1.9,0.8,1.9,1.9       v6.6C100.9,94.5,100.1,95.3,99,95.3z"/>

</g>

</g>

</g>

      <g>

<g>

<g>

<path class="st0"
      d="M78.7,95.3H65c-1,0-1.9-0.8-1.9-1.9c0-1,0.8-1.9,1.9-1.9h13.7c1,0,1.9,0.8,1.9,1.9       C80.6,94.5,79.8,95.3,78.7,95.3z M51.2,95.3H37.5c-1,0-1.9-0.8-1.9-1.9c0-1,0.8-1.9,1.9-1.9h13.7c1,0,1.9,0.8,1.9,1.9       C53.1,94.5,52.3,95.3,51.2,95.3z"/>

</g>

</g>

</g>

      <g>

<g>

<g>

<path class="st0"
      d="M23.7,95.3h-6.6c-1,0-1.9-0.8-1.9-1.9v-6.6c0-1,0.8-1.9,1.9-1.9s1.9,0.8,1.9,1.9v4.7h4.7       c1,0,1.9,0.8,1.9,1.9C25.6,94.5,24.8,95.3,23.7,95.3z"/>

</g>

</g>

</g>

      <g>

<g>

<g>

<path class="st0"
      d="M17.2,72.8c-1,0-1.9-0.8-1.9-1.9v-16c0-1,0.8-1.9,1.9-1.9s1.9,0.8,1.9,1.9v16       C19.1,71.9,18.2,72.8,17.2,72.8z"/>

</g>

</g>

</g>

      <g>

<g>

<g>

<path class="st0"
      d="M17.2,40.8c-1,0-1.9-0.8-1.9-1.9v-6.6c0-1,0.8-1.9,1.9-1.9h6.6c1,0,1.9,0.8,1.9,1.9c0,1-0.8,1.9-1.9,1.9       h-4.7v4.7C19.1,39.9,18.2,40.8,17.2,40.8z"/>

</g>

</g>

</g>

      <g>

<g>

<g>

<path class="st0"
      d="M78.7,34.2H65c-1,0-1.9-0.8-1.9-1.9c0-1,0.8-1.9,1.9-1.9h13.7c1,0,1.9,0.8,1.9,1.9       C80.6,33.4,79.8,34.2,78.7,34.2z M51.2,34.2H37.5c-1,0-1.9-0.8-1.9-1.9c0-1,0.8-1.9,1.9-1.9h13.7c1,0,1.9,0.8,1.9,1.9       C53.1,33.4,52.3,34.2,51.2,34.2z"/>

</g>

</g>

</g>

      <g>

<g>

<g>

<path class="st0"
      d="M99,40.8c-1,0-1.9-0.8-1.9-1.9v-4.7h-4.7c-1,0-1.9-0.8-1.9-1.9c0-1,0.8-1.9,1.9-1.9H99       c1,0,1.9,0.8,1.9,1.9v6.6C100.9,39.9,100.1,40.8,99,40.8z"/>

</g>

</g>

</g>

      <g>

<g>

<g>

<path class="st0"
      d="M99,72.8c-1,0-1.9-0.8-1.9-1.9v-16c0-1,0.8-1.9,1.9-1.9s1.9,0.8,1.9,1.9v16C100.9,71.9,100.1,72.8,99,72.8       z"/>

</g>

</g>

</g>

</g>

    <g>

<g>

<g>

<path class="st0"
      d="M110.3,74.9H92.2c-5,0-9.1-4.1-9.1-9.1v-5.9c0-5,4.1-9.1,9.1-9.1h18.1c1,0,1.9,0.8,1.9,1.9V73      C112.1,74,111.3,74.9,110.3,74.9z M92.2,54.5c-3,0-5.4,2.4-5.4,5.4v5.9c0,3,2.4,5.4,5.4,5.4h16.2V54.5H92.2z"/>

</g>

</g>

</g>

    <g>

<g>

<g>

<path class="st4" d="M110.3,52.6H92.2c-4,0-7.2,3.3-7.2,7.2v5.9c0,4,3.3,7.2,7.2,7.2h18.1V52.6z"/>

</g>

</g>

      <g>

<g>

<path class="st0"
      d="M110.3,74.9H92.2c-5,0-9.1-4.1-9.1-9.1v-5.9c0-5,4.1-9.1,9.1-9.1h18.1c1,0,1.9,0.8,1.9,1.9V73      C112.1,74,111.3,74.9,110.3,74.9z M92.2,54.5c-3,0-5.4,2.4-5.4,5.4v5.9c0,3,2.4,5.4,5.4,5.4h16.2V54.5H92.2z"/>

</g>

</g>

</g>

    <g>

<g>

<g>

<circle class="st5" cx="94.8" cy="62.8" r="4.9"/>

</g>

</g>

      <g>

<g>

<path class="st0"
      d="M94.8,69.6c-3.7,0-6.8-3-6.8-6.8c0-3.7,3-6.8,6.8-6.8c3.7,0,6.8,3,6.8,6.8C101.6,66.6,98.5,69.6,94.8,69.6z       M94.8,59.8c-1.7,0-3,1.4-3,3c0,1.7,1.4,3,3,3c1.7,0,3-1.4,3-3C97.8,61.1,96.5,59.8,94.8,59.8z"/>

</g>

</g>

</g>

</g>

</svg>
